<?xml version="1.0" encoding="utf-8"?>
<!-- Generator: Adobe Illustrator 18.0.0, SVG Export Plug-In . SVG Version: 6.00 Build 0)  -->
<!DOCTYPE svg PUBLIC "-//W3C//DTD SVG 1.1//EN" "http://www.w3.org/Graphics/SVG/1.1/DTD/svg11.dtd">
<svg version="1.1" id="Layer_1" xmlns="http://www.w3.org/2000/svg" xmlns:xlink="http://www.w3.org/1999/xlink" x="0px" y="0px"
	 viewBox="0 0 237 217.2" enable-background="new 0 0 237 217.2" xml:space="preserve">
<path d="M61.7,45l5,5V77l-5,5H51.4V45H61.7z M52.5,46.1v34.7h8.8l4.4-4.4v-26l-4.4-4.4H52.5z"/>
<path d="M109,76.7l4,4.4h4.7l4-4.4V45h1.1v32.2l-4.5,5.1h-5.7l-4.5-5.1V45h1.1V76.7z"/>
<path d="M168.1,45.1l5,5v8.4l-3.7,4.7l4.8,4.8v9l-5,5h-10.3V45.1H168.1z M168.3,62.7l3.6-4.6v-7.6l-4.3-4.4H160v16.5H168.3z
	 M160,80.9h8.8l4.3-4.3v-8.1l-4.6-4.6H160V80.9z"/>
<path d="M51.4,91.7h2.9l12.1,36.1h0.1l0-36.1h1.1v36.9h-2L53.5,92.8h-0.9v35.8h-1.1V91.7z"/>
<path d="M114.5,128.6V91.5c3.9,0-2.7,0,1.1,0v37.1H114.5z"/>
<path d="M166.1,92.5h-8.4v-1h17.9v1h-8.4v36.1h-1.1V92.5z"/>
<path d="M52.2,169.6l4.4,4.5h4.9l4.3-4.5v-8.5L51.5,151v-8.1l4.7-4.9h5.7l4.7,4.9v5.3h-0.9v-4.8l-4.3-4.3h-4.7l-4.1,4.3v7.1
	l14.3,10.1v9.5l-4.9,5.1h-5.9l-4.9-5.1v-6.4h1V169.6z"/>
<path d="M114.7,155.2l11.7,19.9h-1.3l-11.4-19.3h-3.2v19.3h-1.1v-36.9h1.1v16.6h3.2l10.3-16.6h1.3L114.7,155.2z"/>
<path d="M168.2,159.5h-0.6v15.5H167h-0.5v-15.5h-0.6l-7.4-21.6h1.2l7,20.4h0.7l7-20.4h1.2L168.2,159.5z"/>
<path d="M109,71.1H52.6v36.8h52.9v4.9H52.6v40.4h56.9v4.9H47V66.2H109V71.1z"/>
<path d="M152.7,66.2c27.6,0,41.8,17.3,41.8,44.5c0,26.8-12.1,47.3-41.7,47.3h-31.1V66.2H152.7z M127.3,153.2h23.6
	c28.1,0,38.1-16.9,38.1-42.1c0-23.7-11.1-40-36.5-40h-25.2V153.2z"/>
</svg>
